<mxfile host="app.diagrams.net" agent="Mozilla/5.0 (Windows NT 10.0; Win64; x64) AppleWebKit/537.36 (KHTML, like Gecko) Chrome/131.0.0.0 Safari/537.36" version="26.0.4">
  <diagram name="PÃ¡gina-1" id="Sjuj-3gqKvTOic_HNlAD">
    <mxGraphModel dx="1050" dy="522" grid="1" gridSize="10" guides="1" tooltips="1" connect="1" arrows="1" fold="1" page="1" pageScale="1" pageWidth="827" pageHeight="1169" math="0" shadow="0">
      <root>
        <mxCell id="0" />
        <mxCell id="1" parent="0" />
        <mxCell id="08mX7MxqLNH22tpMBtNo-1" value="Inmueble" style="shape=table;startSize=30;container=1;collapsible=1;childLayout=tableLayout;fixedRows=1;rowLines=0;fontStyle=1;align=center;resizeLast=1;fontSize=10;" vertex="1" parent="1">
          <mxGeometry x="99.5" y="70" width="127.5" height="270" as="geometry">
            <mxRectangle x="32.5" y="140" width="80" height="30" as="alternateBounds" />
          </mxGeometry>
        </mxCell>
        <mxCell id="08mX7MxqLNH22tpMBtNo-2" value="" style="shape=tableRow;horizontal=0;startSize=0;swimlaneHead=0;swimlaneBody=0;fillColor=none;collapsible=0;dropTarget=0;points=[[0,0.5],[1,0.5]];portConstraint=eastwest;top=0;left=0;right=0;bottom=1;fontSize=10;" vertex="1" parent="08mX7MxqLNH22tpMBtNo-1">
          <mxGeometry y="30" width="127.5" height="30" as="geometry" />
        </mxCell>
        <mxCell id="08mX7MxqLNH22tpMBtNo-3" value="PK" style="shape=partialRectangle;connectable=0;fillColor=none;top=0;left=0;bottom=0;right=0;fontStyle=1;overflow=hidden;fontSize=10;" vertex="1" parent="08mX7MxqLNH22tpMBtNo-2">
          <mxGeometry width="30" height="30" as="geometry">
            <mxRectangle width="30" height="30" as="alternateBounds" />
          </mxGeometry>
        </mxCell>
        <mxCell id="08mX7MxqLNH22tpMBtNo-4" value="Place_ID" style="shape=partialRectangle;connectable=0;fillColor=none;top=0;left=0;bottom=0;right=0;align=left;spacingLeft=6;fontStyle=5;overflow=hidden;fontSize=10;" vertex="1" parent="08mX7MxqLNH22tpMBtNo-2">
          <mxGeometry x="30" width="97.5" height="30" as="geometry">
            <mxRectangle width="97.5" height="30" as="alternateBounds" />
          </mxGeometry>
        </mxCell>
        <mxCell id="08mX7MxqLNH22tpMBtNo-5" value="" style="shape=tableRow;horizontal=0;startSize=0;swimlaneHead=0;swimlaneBody=0;fillColor=none;collapsible=0;dropTarget=0;points=[[0,0.5],[1,0.5]];portConstraint=eastwest;top=0;left=0;right=0;bottom=0;fontSize=10;" vertex="1" parent="08mX7MxqLNH22tpMBtNo-1">
          <mxGeometry y="60" width="127.5" height="30" as="geometry" />
        </mxCell>
        <mxCell id="08mX7MxqLNH22tpMBtNo-6" value="" style="shape=partialRectangle;connectable=0;fillColor=none;top=0;left=0;bottom=0;right=0;editable=1;overflow=hidden;fontSize=10;" vertex="1" parent="08mX7MxqLNH22tpMBtNo-5">
          <mxGeometry width="30" height="30" as="geometry">
            <mxRectangle width="30" height="30" as="alternateBounds" />
          </mxGeometry>
        </mxCell>
        <mxCell id="08mX7MxqLNH22tpMBtNo-7" value="Titulo" style="shape=partialRectangle;connectable=0;fillColor=none;top=0;left=0;bottom=0;right=0;align=left;spacingLeft=6;overflow=hidden;fontSize=10;" vertex="1" parent="08mX7MxqLNH22tpMBtNo-5">
          <mxGeometry x="30" width="97.5" height="30" as="geometry">
            <mxRectangle width="97.5" height="30" as="alternateBounds" />
          </mxGeometry>
        </mxCell>
        <mxCell id="08mX7MxqLNH22tpMBtNo-8" value="" style="shape=tableRow;horizontal=0;startSize=0;swimlaneHead=0;swimlaneBody=0;fillColor=none;collapsible=0;dropTarget=0;points=[[0,0.5],[1,0.5]];portConstraint=eastwest;top=0;left=0;right=0;bottom=0;fontSize=10;" vertex="1" parent="08mX7MxqLNH22tpMBtNo-1">
          <mxGeometry y="90" width="127.5" height="30" as="geometry" />
        </mxCell>
        <mxCell id="08mX7MxqLNH22tpMBtNo-9" value="" style="shape=partialRectangle;connectable=0;fillColor=none;top=0;left=0;bottom=0;right=0;editable=1;overflow=hidden;fontSize=10;" vertex="1" parent="08mX7MxqLNH22tpMBtNo-8">
          <mxGeometry width="30" height="30" as="geometry">
            <mxRectangle width="30" height="30" as="alternateBounds" />
          </mxGeometry>
        </mxCell>
        <mxCell id="08mX7MxqLNH22tpMBtNo-10" value="Moneda" style="shape=partialRectangle;connectable=0;fillColor=none;top=0;left=0;bottom=0;right=0;align=left;spacingLeft=6;overflow=hidden;fontSize=10;" vertex="1" parent="08mX7MxqLNH22tpMBtNo-8">
          <mxGeometry x="30" width="97.5" height="30" as="geometry">
            <mxRectangle width="97.5" height="30" as="alternateBounds" />
          </mxGeometry>
        </mxCell>
        <mxCell id="08mX7MxqLNH22tpMBtNo-172" style="shape=tableRow;horizontal=0;startSize=0;swimlaneHead=0;swimlaneBody=0;fillColor=none;collapsible=0;dropTarget=0;points=[[0,0.5],[1,0.5]];portConstraint=eastwest;top=0;left=0;right=0;bottom=0;fontSize=10;" vertex="1" parent="08mX7MxqLNH22tpMBtNo-1">
          <mxGeometry y="120" width="127.5" height="30" as="geometry" />
        </mxCell>
        <mxCell id="08mX7MxqLNH22tpMBtNo-173" style="shape=partialRectangle;connectable=0;fillColor=none;top=0;left=0;bottom=0;right=0;editable=1;overflow=hidden;fontSize=10;" vertex="1" parent="08mX7MxqLNH22tpMBtNo-172">
          <mxGeometry width="30" height="30" as="geometry">
            <mxRectangle width="30" height="30" as="alternateBounds" />
          </mxGeometry>
        </mxCell>
        <mxCell id="08mX7MxqLNH22tpMBtNo-174" value="Precio" style="shape=partialRectangle;connectable=0;fillColor=none;top=0;left=0;bottom=0;right=0;align=left;spacingLeft=6;overflow=hidden;fontSize=10;" vertex="1" parent="08mX7MxqLNH22tpMBtNo-172">
          <mxGeometry x="30" width="97.5" height="30" as="geometry">
            <mxRectangle width="97.5" height="30" as="alternateBounds" />
          </mxGeometry>
        </mxCell>
        <mxCell id="08mX7MxqLNH22tpMBtNo-175" style="shape=tableRow;horizontal=0;startSize=0;swimlaneHead=0;swimlaneBody=0;fillColor=none;collapsible=0;dropTarget=0;points=[[0,0.5],[1,0.5]];portConstraint=eastwest;top=0;left=0;right=0;bottom=0;fontSize=10;" vertex="1" parent="08mX7MxqLNH22tpMBtNo-1">
          <mxGeometry y="150" width="127.5" height="30" as="geometry" />
        </mxCell>
        <mxCell id="08mX7MxqLNH22tpMBtNo-176" style="shape=partialRectangle;connectable=0;fillColor=none;top=0;left=0;bottom=0;right=0;editable=1;overflow=hidden;fontSize=10;" vertex="1" parent="08mX7MxqLNH22tpMBtNo-175">
          <mxGeometry width="30" height="30" as="geometry">
            <mxRectangle width="30" height="30" as="alternateBounds" />
          </mxGeometry>
        </mxCell>
        <mxCell id="08mX7MxqLNH22tpMBtNo-177" value="Direccion" style="shape=partialRectangle;connectable=0;fillColor=none;top=0;left=0;bottom=0;right=0;align=left;spacingLeft=6;overflow=hidden;fontSize=10;" vertex="1" parent="08mX7MxqLNH22tpMBtNo-175">
          <mxGeometry x="30" width="97.5" height="30" as="geometry">
            <mxRectangle width="97.5" height="30" as="alternateBounds" />
          </mxGeometry>
        </mxCell>
        <mxCell id="08mX7MxqLNH22tpMBtNo-178" style="shape=tableRow;horizontal=0;startSize=0;swimlaneHead=0;swimlaneBody=0;fillColor=none;collapsible=0;dropTarget=0;points=[[0,0.5],[1,0.5]];portConstraint=eastwest;top=0;left=0;right=0;bottom=0;fontSize=10;" vertex="1" parent="08mX7MxqLNH22tpMBtNo-1">
          <mxGeometry y="180" width="127.5" height="30" as="geometry" />
        </mxCell>
        <mxCell id="08mX7MxqLNH22tpMBtNo-179" style="shape=partialRectangle;connectable=0;fillColor=none;top=0;left=0;bottom=0;right=0;editable=1;overflow=hidden;fontSize=10;" vertex="1" parent="08mX7MxqLNH22tpMBtNo-178">
          <mxGeometry width="30" height="30" as="geometry">
            <mxRectangle width="30" height="30" as="alternateBounds" />
          </mxGeometry>
        </mxCell>
        <mxCell id="08mX7MxqLNH22tpMBtNo-180" value="Enlace" style="shape=partialRectangle;connectable=0;fillColor=none;top=0;left=0;bottom=0;right=0;align=left;spacingLeft=6;overflow=hidden;fontSize=10;" vertex="1" parent="08mX7MxqLNH22tpMBtNo-178">
          <mxGeometry x="30" width="97.5" height="30" as="geometry">
            <mxRectangle width="97.5" height="30" as="alternateBounds" />
          </mxGeometry>
        </mxCell>
        <mxCell id="08mX7MxqLNH22tpMBtNo-181" style="shape=tableRow;horizontal=0;startSize=0;swimlaneHead=0;swimlaneBody=0;fillColor=none;collapsible=0;dropTarget=0;points=[[0,0.5],[1,0.5]];portConstraint=eastwest;top=0;left=0;right=0;bottom=0;fontSize=10;" vertex="1" parent="08mX7MxqLNH22tpMBtNo-1">
          <mxGeometry y="210" width="127.5" height="30" as="geometry" />
        </mxCell>
        <mxCell id="08mX7MxqLNH22tpMBtNo-182" style="shape=partialRectangle;connectable=0;fillColor=none;top=0;left=0;bottom=0;right=0;editable=1;overflow=hidden;fontSize=10;" vertex="1" parent="08mX7MxqLNH22tpMBtNo-181">
          <mxGeometry width="30" height="30" as="geometry">
            <mxRectangle width="30" height="30" as="alternateBounds" />
          </mxGeometry>
        </mxCell>
        <mxCell id="08mX7MxqLNH22tpMBtNo-183" value="Latitud" style="shape=partialRectangle;connectable=0;fillColor=none;top=0;left=0;bottom=0;right=0;align=left;spacingLeft=6;overflow=hidden;fontSize=10;" vertex="1" parent="08mX7MxqLNH22tpMBtNo-181">
          <mxGeometry x="30" width="97.5" height="30" as="geometry">
            <mxRectangle width="97.5" height="30" as="alternateBounds" />
          </mxGeometry>
        </mxCell>
        <mxCell id="08mX7MxqLNH22tpMBtNo-184" style="shape=tableRow;horizontal=0;startSize=0;swimlaneHead=0;swimlaneBody=0;fillColor=none;collapsible=0;dropTarget=0;points=[[0,0.5],[1,0.5]];portConstraint=eastwest;top=0;left=0;right=0;bottom=0;fontSize=10;" vertex="1" parent="08mX7MxqLNH22tpMBtNo-1">
          <mxGeometry y="240" width="127.5" height="30" as="geometry" />
        </mxCell>
        <mxCell id="08mX7MxqLNH22tpMBtNo-185" style="shape=partialRectangle;connectable=0;fillColor=none;top=0;left=0;bottom=0;right=0;editable=1;overflow=hidden;fontSize=10;" vertex="1" parent="08mX7MxqLNH22tpMBtNo-184">
          <mxGeometry width="30" height="30" as="geometry">
            <mxRectangle width="30" height="30" as="alternateBounds" />
          </mxGeometry>
        </mxCell>
        <mxCell id="08mX7MxqLNH22tpMBtNo-186" value="Longitud" style="shape=partialRectangle;connectable=0;fillColor=none;top=0;left=0;bottom=0;right=0;align=left;spacingLeft=6;overflow=hidden;fontSize=10;" vertex="1" parent="08mX7MxqLNH22tpMBtNo-184">
          <mxGeometry x="30" width="97.5" height="30" as="geometry">
            <mxRectangle width="97.5" height="30" as="alternateBounds" />
          </mxGeometry>
        </mxCell>
        <mxCell id="08mX7MxqLNH22tpMBtNo-11" value="LugaresCercanos" style="shape=table;startSize=30;container=1;collapsible=1;childLayout=tableLayout;fixedRows=1;rowLines=0;fontStyle=1;align=center;resizeLast=1;fontSize=10;" vertex="1" parent="1">
          <mxGeometry x="553" y="70" width="145.5" height="270" as="geometry" />
        </mxCell>
        <mxCell id="08mX7MxqLNH22tpMBtNo-12" value="" style="shape=tableRow;horizontal=0;startSize=0;swimlaneHead=0;swimlaneBody=0;fillColor=none;collapsible=0;dropTarget=0;points=[[0,0.5],[1,0.5]];portConstraint=eastwest;top=0;left=0;right=0;bottom=1;fontSize=10;" vertex="1" parent="08mX7MxqLNH22tpMBtNo-11">
          <mxGeometry y="30" width="145.5" height="30" as="geometry" />
        </mxCell>
        <mxCell id="08mX7MxqLNH22tpMBtNo-13" value="PK" style="shape=partialRectangle;connectable=0;fillColor=none;top=0;left=0;bottom=0;right=0;fontStyle=1;overflow=hidden;fontSize=10;" vertex="1" parent="08mX7MxqLNH22tpMBtNo-12">
          <mxGeometry width="30" height="30" as="geometry">
            <mxRectangle width="30" height="30" as="alternateBounds" />
          </mxGeometry>
        </mxCell>
        <mxCell id="08mX7MxqLNH22tpMBtNo-14" value="Lugar_Place_ID" style="shape=partialRectangle;connectable=0;fillColor=none;top=0;left=0;bottom=0;right=0;align=left;spacingLeft=6;fontStyle=5;overflow=hidden;fontSize=10;" vertex="1" parent="08mX7MxqLNH22tpMBtNo-12">
          <mxGeometry x="30" width="115.5" height="30" as="geometry">
            <mxRectangle width="115.5" height="30" as="alternateBounds" />
          </mxGeometry>
        </mxCell>
        <mxCell id="08mX7MxqLNH22tpMBtNo-202" style="shape=tableRow;horizontal=0;startSize=0;swimlaneHead=0;swimlaneBody=0;fillColor=none;collapsible=0;dropTarget=0;points=[[0,0.5],[1,0.5]];portConstraint=eastwest;top=0;left=0;right=0;bottom=0;fontSize=10;" vertex="1" parent="08mX7MxqLNH22tpMBtNo-11">
          <mxGeometry y="60" width="145.5" height="30" as="geometry" />
        </mxCell>
        <mxCell id="08mX7MxqLNH22tpMBtNo-203" style="shape=partialRectangle;connectable=0;fillColor=none;top=0;left=0;bottom=0;right=0;editable=1;overflow=hidden;fontSize=10;" vertex="1" parent="08mX7MxqLNH22tpMBtNo-202">
          <mxGeometry width="30" height="30" as="geometry">
            <mxRectangle width="30" height="30" as="alternateBounds" />
          </mxGeometry>
        </mxCell>
        <mxCell id="08mX7MxqLNH22tpMBtNo-204" value="Titulo_Inmueble" style="shape=partialRectangle;connectable=0;fillColor=none;top=0;left=0;bottom=0;right=0;align=left;spacingLeft=6;overflow=hidden;fontSize=10;" vertex="1" parent="08mX7MxqLNH22tpMBtNo-202">
          <mxGeometry x="30" width="115.5" height="30" as="geometry">
            <mxRectangle width="115.5" height="30" as="alternateBounds" />
          </mxGeometry>
        </mxCell>
        <mxCell id="08mX7MxqLNH22tpMBtNo-15" value="" style="shape=tableRow;horizontal=0;startSize=0;swimlaneHead=0;swimlaneBody=0;fillColor=none;collapsible=0;dropTarget=0;points=[[0,0.5],[1,0.5]];portConstraint=eastwest;top=0;left=0;right=0;bottom=0;fontSize=10;" vertex="1" parent="08mX7MxqLNH22tpMBtNo-11">
          <mxGeometry y="90" width="145.5" height="30" as="geometry" />
        </mxCell>
        <mxCell id="08mX7MxqLNH22tpMBtNo-16" value="" style="shape=partialRectangle;connectable=0;fillColor=none;top=0;left=0;bottom=0;right=0;editable=1;overflow=hidden;fontSize=10;" vertex="1" parent="08mX7MxqLNH22tpMBtNo-15">
          <mxGeometry width="30" height="30" as="geometry">
            <mxRectangle width="30" height="30" as="alternateBounds" />
          </mxGeometry>
        </mxCell>
        <mxCell id="08mX7MxqLNH22tpMBtNo-17" value="Direccion_Inmueble" style="shape=partialRectangle;connectable=0;fillColor=none;top=0;left=0;bottom=0;right=0;align=left;spacingLeft=6;overflow=hidden;fontSize=10;" vertex="1" parent="08mX7MxqLNH22tpMBtNo-15">
          <mxGeometry x="30" width="115.5" height="30" as="geometry">
            <mxRectangle width="115.5" height="30" as="alternateBounds" />
          </mxGeometry>
        </mxCell>
        <mxCell id="08mX7MxqLNH22tpMBtNo-18" value="" style="shape=tableRow;horizontal=0;startSize=0;swimlaneHead=0;swimlaneBody=0;fillColor=none;collapsible=0;dropTarget=0;points=[[0,0.5],[1,0.5]];portConstraint=eastwest;top=0;left=0;right=0;bottom=0;fontSize=10;" vertex="1" parent="08mX7MxqLNH22tpMBtNo-11">
          <mxGeometry y="120" width="145.5" height="30" as="geometry" />
        </mxCell>
        <mxCell id="08mX7MxqLNH22tpMBtNo-19" value="" style="shape=partialRectangle;connectable=0;fillColor=none;top=0;left=0;bottom=0;right=0;editable=1;overflow=hidden;fontSize=10;" vertex="1" parent="08mX7MxqLNH22tpMBtNo-18">
          <mxGeometry width="30" height="30" as="geometry">
            <mxRectangle width="30" height="30" as="alternateBounds" />
          </mxGeometry>
        </mxCell>
        <mxCell id="08mX7MxqLNH22tpMBtNo-20" value="Latitud" style="shape=partialRectangle;connectable=0;fillColor=none;top=0;left=0;bottom=0;right=0;align=left;spacingLeft=6;overflow=hidden;fontSize=10;" vertex="1" parent="08mX7MxqLNH22tpMBtNo-18">
          <mxGeometry x="30" width="115.5" height="30" as="geometry">
            <mxRectangle width="115.5" height="30" as="alternateBounds" />
          </mxGeometry>
        </mxCell>
        <mxCell id="08mX7MxqLNH22tpMBtNo-21" value="" style="shape=tableRow;horizontal=0;startSize=0;swimlaneHead=0;swimlaneBody=0;fillColor=none;collapsible=0;dropTarget=0;points=[[0,0.5],[1,0.5]];portConstraint=eastwest;top=0;left=0;right=0;bottom=0;fontSize=10;" vertex="1" parent="08mX7MxqLNH22tpMBtNo-11">
          <mxGeometry y="150" width="145.5" height="30" as="geometry" />
        </mxCell>
        <mxCell id="08mX7MxqLNH22tpMBtNo-22" value="" style="shape=partialRectangle;connectable=0;fillColor=none;top=0;left=0;bottom=0;right=0;editable=1;overflow=hidden;fontSize=10;" vertex="1" parent="08mX7MxqLNH22tpMBtNo-21">
          <mxGeometry width="30" height="30" as="geometry">
            <mxRectangle width="30" height="30" as="alternateBounds" />
          </mxGeometry>
        </mxCell>
        <mxCell id="08mX7MxqLNH22tpMBtNo-23" value="Longitud" style="shape=partialRectangle;connectable=0;fillColor=none;top=0;left=0;bottom=0;right=0;align=left;spacingLeft=6;overflow=hidden;fontSize=10;" vertex="1" parent="08mX7MxqLNH22tpMBtNo-21">
          <mxGeometry x="30" width="115.5" height="30" as="geometry">
            <mxRectangle width="115.5" height="30" as="alternateBounds" />
          </mxGeometry>
        </mxCell>
        <mxCell id="08mX7MxqLNH22tpMBtNo-190" style="shape=tableRow;horizontal=0;startSize=0;swimlaneHead=0;swimlaneBody=0;fillColor=none;collapsible=0;dropTarget=0;points=[[0,0.5],[1,0.5]];portConstraint=eastwest;top=0;left=0;right=0;bottom=0;fontSize=10;" vertex="1" parent="08mX7MxqLNH22tpMBtNo-11">
          <mxGeometry y="180" width="145.5" height="30" as="geometry" />
        </mxCell>
        <mxCell id="08mX7MxqLNH22tpMBtNo-191" style="shape=partialRectangle;connectable=0;fillColor=none;top=0;left=0;bottom=0;right=0;editable=1;overflow=hidden;fontSize=10;" vertex="1" parent="08mX7MxqLNH22tpMBtNo-190">
          <mxGeometry width="30" height="30" as="geometry">
            <mxRectangle width="30" height="30" as="alternateBounds" />
          </mxGeometry>
        </mxCell>
        <mxCell id="08mX7MxqLNH22tpMBtNo-192" value="Rubro" style="shape=partialRectangle;connectable=0;fillColor=none;top=0;left=0;bottom=0;right=0;align=left;spacingLeft=6;overflow=hidden;fontSize=10;" vertex="1" parent="08mX7MxqLNH22tpMBtNo-190">
          <mxGeometry x="30" width="115.5" height="30" as="geometry">
            <mxRectangle width="115.5" height="30" as="alternateBounds" />
          </mxGeometry>
        </mxCell>
        <mxCell id="08mX7MxqLNH22tpMBtNo-205" style="shape=tableRow;horizontal=0;startSize=0;swimlaneHead=0;swimlaneBody=0;fillColor=none;collapsible=0;dropTarget=0;points=[[0,0.5],[1,0.5]];portConstraint=eastwest;top=0;left=0;right=0;bottom=0;fontSize=10;" vertex="1" parent="08mX7MxqLNH22tpMBtNo-11">
          <mxGeometry y="210" width="145.5" height="30" as="geometry" />
        </mxCell>
        <mxCell id="08mX7MxqLNH22tpMBtNo-206" style="shape=partialRectangle;connectable=0;fillColor=none;top=0;left=0;bottom=0;right=0;editable=1;overflow=hidden;fontSize=10;" vertex="1" parent="08mX7MxqLNH22tpMBtNo-205">
          <mxGeometry width="30" height="30" as="geometry">
            <mxRectangle width="30" height="30" as="alternateBounds" />
          </mxGeometry>
        </mxCell>
        <mxCell id="08mX7MxqLNH22tpMBtNo-207" value="Nombre" style="shape=partialRectangle;connectable=0;fillColor=none;top=0;left=0;bottom=0;right=0;align=left;spacingLeft=6;overflow=hidden;fontSize=10;" vertex="1" parent="08mX7MxqLNH22tpMBtNo-205">
          <mxGeometry x="30" width="115.5" height="30" as="geometry">
            <mxRectangle width="115.5" height="30" as="alternateBounds" />
          </mxGeometry>
        </mxCell>
        <mxCell id="08mX7MxqLNH22tpMBtNo-193" style="shape=tableRow;horizontal=0;startSize=0;swimlaneHead=0;swimlaneBody=0;fillColor=none;collapsible=0;dropTarget=0;points=[[0,0.5],[1,0.5]];portConstraint=eastwest;top=0;left=0;right=0;bottom=0;fontSize=10;" vertex="1" parent="08mX7MxqLNH22tpMBtNo-11">
          <mxGeometry y="240" width="145.5" height="30" as="geometry" />
        </mxCell>
        <mxCell id="08mX7MxqLNH22tpMBtNo-194" style="shape=partialRectangle;connectable=0;fillColor=none;top=0;left=0;bottom=0;right=0;editable=1;overflow=hidden;fontSize=10;" vertex="1" parent="08mX7MxqLNH22tpMBtNo-193">
          <mxGeometry width="30" height="30" as="geometry">
            <mxRectangle width="30" height="30" as="alternateBounds" />
          </mxGeometry>
        </mxCell>
        <mxCell id="08mX7MxqLNH22tpMBtNo-195" value="Direccion" style="shape=partialRectangle;connectable=0;fillColor=none;top=0;left=0;bottom=0;right=0;align=left;spacingLeft=6;overflow=hidden;fontSize=10;" vertex="1" parent="08mX7MxqLNH22tpMBtNo-193">
          <mxGeometry x="30" width="115.5" height="30" as="geometry">
            <mxRectangle width="115.5" height="30" as="alternateBounds" />
          </mxGeometry>
        </mxCell>
        <mxCell id="08mX7MxqLNH22tpMBtNo-49" value="Nub" style="shape=table;startSize=30;container=1;collapsible=1;childLayout=tableLayout;fixedRows=1;rowLines=0;fontStyle=1;align=center;resizeLast=1;fontSize=10;" vertex="1" parent="1">
          <mxGeometry x="335.25" y="100" width="137.5" height="120" as="geometry" />
        </mxCell>
        <mxCell id="08mX7MxqLNH22tpMBtNo-50" value="" style="shape=tableRow;horizontal=0;startSize=0;swimlaneHead=0;swimlaneBody=0;fillColor=none;collapsible=0;dropTarget=0;points=[[0,0.5],[1,0.5]];portConstraint=eastwest;top=0;left=0;right=0;bottom=1;fontSize=10;" vertex="1" parent="08mX7MxqLNH22tpMBtNo-49">
          <mxGeometry y="30" width="137.5" height="30" as="geometry" />
        </mxCell>
        <mxCell id="08mX7MxqLNH22tpMBtNo-51" value="PK" style="shape=partialRectangle;connectable=0;fillColor=none;top=0;left=0;bottom=0;right=0;fontStyle=1;overflow=hidden;fontSize=10;" vertex="1" parent="08mX7MxqLNH22tpMBtNo-50">
          <mxGeometry width="30" height="30" as="geometry">
            <mxRectangle width="30" height="30" as="alternateBounds" />
          </mxGeometry>
        </mxCell>
        <mxCell id="08mX7MxqLNH22tpMBtNo-52" value="Id" style="shape=partialRectangle;connectable=0;fillColor=none;top=0;left=0;bottom=0;right=0;align=left;spacingLeft=6;fontStyle=5;overflow=hidden;fontSize=10;" vertex="1" parent="08mX7MxqLNH22tpMBtNo-50">
          <mxGeometry x="30" width="107.5" height="30" as="geometry">
            <mxRectangle width="107.5" height="30" as="alternateBounds" />
          </mxGeometry>
        </mxCell>
        <mxCell id="08mX7MxqLNH22tpMBtNo-53" value="" style="shape=tableRow;horizontal=0;startSize=0;swimlaneHead=0;swimlaneBody=0;fillColor=none;collapsible=0;dropTarget=0;points=[[0,0.5],[1,0.5]];portConstraint=eastwest;top=0;left=0;right=0;bottom=0;fontSize=10;" vertex="1" parent="08mX7MxqLNH22tpMBtNo-49">
          <mxGeometry y="60" width="137.5" height="30" as="geometry" />
        </mxCell>
        <mxCell id="08mX7MxqLNH22tpMBtNo-54" value="FK" style="shape=partialRectangle;connectable=0;fillColor=none;top=0;left=0;bottom=0;right=0;editable=1;overflow=hidden;fontSize=10;" vertex="1" parent="08mX7MxqLNH22tpMBtNo-53">
          <mxGeometry width="30" height="30" as="geometry">
            <mxRectangle width="30" height="30" as="alternateBounds" />
          </mxGeometry>
        </mxCell>
        <mxCell id="08mX7MxqLNH22tpMBtNo-55" value="Place_ID_Inmueble" style="shape=partialRectangle;connectable=0;fillColor=none;top=0;left=0;bottom=0;right=0;align=left;spacingLeft=6;overflow=hidden;fontSize=10;" vertex="1" parent="08mX7MxqLNH22tpMBtNo-53">
          <mxGeometry x="30" width="107.5" height="30" as="geometry">
            <mxRectangle width="107.5" height="30" as="alternateBounds" />
          </mxGeometry>
        </mxCell>
        <mxCell id="08mX7MxqLNH22tpMBtNo-56" value="" style="shape=tableRow;horizontal=0;startSize=0;swimlaneHead=0;swimlaneBody=0;fillColor=none;collapsible=0;dropTarget=0;points=[[0,0.5],[1,0.5]];portConstraint=eastwest;top=0;left=0;right=0;bottom=0;fontSize=10;" vertex="1" parent="08mX7MxqLNH22tpMBtNo-49">
          <mxGeometry y="90" width="137.5" height="30" as="geometry" />
        </mxCell>
        <mxCell id="08mX7MxqLNH22tpMBtNo-57" value="FK" style="shape=partialRectangle;connectable=0;fillColor=none;top=0;left=0;bottom=0;right=0;editable=1;overflow=hidden;fontSize=10;" vertex="1" parent="08mX7MxqLNH22tpMBtNo-56">
          <mxGeometry width="30" height="30" as="geometry">
            <mxRectangle width="30" height="30" as="alternateBounds" />
          </mxGeometry>
        </mxCell>
        <mxCell id="08mX7MxqLNH22tpMBtNo-58" value="Lugar_Place_ID" style="shape=partialRectangle;connectable=0;fillColor=none;top=0;left=0;bottom=0;right=0;align=left;spacingLeft=6;overflow=hidden;fontSize=10;" vertex="1" parent="08mX7MxqLNH22tpMBtNo-56">
          <mxGeometry x="30" width="107.5" height="30" as="geometry">
            <mxRectangle width="107.5" height="30" as="alternateBounds" />
          </mxGeometry>
        </mxCell>
        <mxCell id="08mX7MxqLNH22tpMBtNo-59" value="&lt;b&gt;&lt;font style=&quot;font-size: 20px&quot;&gt;MODELO RELACIONAL&lt;/font&gt;&lt;/b&gt;" style="text;html=1;align=center;verticalAlign=middle;resizable=0;points=[];autosize=1;strokeColor=none;fillColor=none;fontSize=12;" vertex="1" parent="1">
          <mxGeometry x="284" y="40" width="240" height="20" as="geometry" />
        </mxCell>
        <mxCell id="08mX7MxqLNH22tpMBtNo-60" value="" style="edgeStyle=entityRelationEdgeStyle;fontSize=12;html=1;endArrow=ERoneToMany;rounded=0;entryX=1;entryY=0.5;entryDx=0;entryDy=0;exitX=0;exitY=0.5;exitDx=0;exitDy=0;" edge="1" parent="1" source="08mX7MxqLNH22tpMBtNo-12" target="08mX7MxqLNH22tpMBtNo-56">
          <mxGeometry width="100" height="100" relative="1" as="geometry">
            <mxPoint x="539.1200000000001" y="195" as="sourcePoint" />
            <mxPoint x="479" y="285" as="targetPoint" />
          </mxGeometry>
        </mxCell>
        <mxCell id="08mX7MxqLNH22tpMBtNo-61" value="" style="edgeStyle=entityRelationEdgeStyle;fontSize=12;html=1;endArrow=ERoneToMany;rounded=0;entryX=0.009;entryY=0.311;entryDx=0;entryDy=0;exitX=1;exitY=0.5;exitDx=0;exitDy=0;entryPerimeter=0;" edge="1" parent="1" source="08mX7MxqLNH22tpMBtNo-2" target="08mX7MxqLNH22tpMBtNo-53">
          <mxGeometry width="100" height="100" relative="1" as="geometry">
            <mxPoint x="549.1200000000001" y="205" as="sourcePoint" />
            <mxPoint x="489" y="295" as="targetPoint" />
          </mxGeometry>
        </mxCell>
        <mxCell id="08mX7MxqLNH22tpMBtNo-62" value="Inmueble" style="rounded=0;whiteSpace=wrap;html=1;fillColor=#f5f5f5;fontColor=#333333;strokeColor=#666666;" vertex="1" parent="1">
          <mxGeometry x="219.5" y="550" width="80" height="30" as="geometry" />
        </mxCell>
        <mxCell id="08mX7MxqLNH22tpMBtNo-64" value="LugaresCercanos" style="rounded=0;whiteSpace=wrap;html=1;fillColor=#f5f5f5;fontColor=#333333;strokeColor=#666666;" vertex="1" parent="1">
          <mxGeometry x="528.5" y="550" width="110" height="30" as="geometry" />
        </mxCell>
        <mxCell id="08mX7MxqLNH22tpMBtNo-69" value="" style="endArrow=none;html=1;rounded=0;fontSize=20;entryX=1;entryY=0.5;entryDx=0;entryDy=0;exitX=0;exitY=0.5;exitDx=0;exitDy=0;" edge="1" parent="1" source="08mX7MxqLNH22tpMBtNo-71" target="08mX7MxqLNH22tpMBtNo-62">
          <mxGeometry width="50" height="50" relative="1" as="geometry">
            <mxPoint x="249.5" y="690" as="sourcePoint" />
            <mxPoint x="299.5" y="640" as="targetPoint" />
          </mxGeometry>
        </mxCell>
        <mxCell id="08mX7MxqLNH22tpMBtNo-70" value="" style="endArrow=none;html=1;rounded=0;fontSize=20;entryX=1;entryY=0.5;entryDx=0;entryDy=0;exitX=0;exitY=0.5;exitDx=0;exitDy=0;" edge="1" parent="1" source="08mX7MxqLNH22tpMBtNo-64" target="08mX7MxqLNH22tpMBtNo-71">
          <mxGeometry width="50" height="50" relative="1" as="geometry">
            <mxPoint x="298.5" y="760" as="sourcePoint" />
            <mxPoint x="498.5" y="565" as="targetPoint" />
          </mxGeometry>
        </mxCell>
        <mxCell id="08mX7MxqLNH22tpMBtNo-71" value="&lt;font style=&quot;font-size: 12px&quot;&gt;tener&lt;/font&gt;" style="rhombus;whiteSpace=wrap;html=1;fontSize=20;fillColor=#fff2cc;strokeColor=#d6b656;" vertex="1" parent="1">
          <mxGeometry x="383" y="537.5" width="61.5" height="55" as="geometry" />
        </mxCell>
        <mxCell id="08mX7MxqLNH22tpMBtNo-76" value="&lt;font style=&quot;font-size: 13px;&quot;&gt;M:N&lt;/font&gt;" style="text;html=1;align=center;verticalAlign=middle;resizable=0;points=[];autosize=1;strokeColor=none;fillColor=none;fontSize=12;" vertex="1" parent="1">
          <mxGeometry x="389" y="590" width="50" height="30" as="geometry" />
        </mxCell>
        <mxCell id="08mX7MxqLNH22tpMBtNo-81" value="&lt;font&gt;M&lt;/font&gt;" style="text;html=1;align=center;verticalAlign=middle;resizable=0;points=[];autosize=1;strokeColor=none;fillColor=none;fontSize=12;" vertex="1" parent="1">
          <mxGeometry x="294.5" y="560" width="30" height="30" as="geometry" />
        </mxCell>
        <mxCell id="08mX7MxqLNH22tpMBtNo-85" value="&lt;font&gt;1&lt;/font&gt;" style="text;html=1;align=center;verticalAlign=middle;resizable=0;points=[];autosize=1;strokeColor=none;fillColor=none;fontSize=12;" vertex="1" parent="1">
          <mxGeometry x="294.5" y="540" width="30" height="30" as="geometry" />
        </mxCell>
        <mxCell id="08mX7MxqLNH22tpMBtNo-86" value="&lt;font&gt;N&lt;/font&gt;" style="text;html=1;align=center;verticalAlign=middle;resizable=0;points=[];autosize=1;strokeColor=none;fillColor=none;fontSize=12;" vertex="1" parent="1">
          <mxGeometry x="503.5" y="540" width="30" height="30" as="geometry" />
        </mxCell>
        <mxCell id="08mX7MxqLNH22tpMBtNo-87" value="&lt;font&gt;1&lt;/font&gt;" style="text;html=1;align=center;verticalAlign=middle;resizable=0;points=[];autosize=1;strokeColor=none;fillColor=none;fontSize=12;" vertex="1" parent="1">
          <mxGeometry x="503.5" y="560" width="30" height="30" as="geometry" />
        </mxCell>
        <mxCell id="08mX7MxqLNH22tpMBtNo-96" value="Lugar_Place_ID&lt;div&gt;(pk)&lt;/div&gt;" style="ellipse;whiteSpace=wrap;html=1;fontSize=12;fillColor=#f8cecc;strokeColor=#b85450;" vertex="1" parent="1">
          <mxGeometry x="468.5" y="655" width="110" height="40" as="geometry" />
        </mxCell>
        <mxCell id="08mX7MxqLNH22tpMBtNo-97" value="" style="endArrow=none;html=1;rounded=0;fontSize=10;entryX=0.5;entryY=1;entryDx=0;entryDy=0;exitX=0.5;exitY=0;exitDx=0;exitDy=0;" edge="1" parent="1" source="08mX7MxqLNH22tpMBtNo-96" target="08mX7MxqLNH22tpMBtNo-64">
          <mxGeometry width="50" height="50" relative="1" as="geometry">
            <mxPoint x="354.5" y="760" as="sourcePoint" />
            <mxPoint x="544.5" y="740" as="targetPoint" />
          </mxGeometry>
        </mxCell>
        <mxCell id="08mX7MxqLNH22tpMBtNo-98" value="Titulo_Inmueble" style="ellipse;whiteSpace=wrap;html=1;fontSize=12;" vertex="1" parent="1">
          <mxGeometry x="528.62" y="480" width="90.5" height="35" as="geometry" />
        </mxCell>
        <mxCell id="08mX7MxqLNH22tpMBtNo-99" value="" style="endArrow=none;html=1;rounded=0;fontSize=10;entryX=0.5;entryY=0;entryDx=0;entryDy=0;exitX=0.5;exitY=1;exitDx=0;exitDy=0;" edge="1" parent="1" target="08mX7MxqLNH22tpMBtNo-64" source="08mX7MxqLNH22tpMBtNo-98">
          <mxGeometry width="50" height="50" relative="1" as="geometry">
            <mxPoint x="558.5" y="670" as="sourcePoint" />
            <mxPoint x="544.5" y="740" as="targetPoint" />
          </mxGeometry>
        </mxCell>
        <mxCell id="08mX7MxqLNH22tpMBtNo-100" value="Direccion_Inmueble" style="ellipse;whiteSpace=wrap;html=1;fontSize=12;" vertex="1" parent="1">
          <mxGeometry x="642.5" y="690" width="120" height="40" as="geometry" />
        </mxCell>
        <mxCell id="08mX7MxqLNH22tpMBtNo-101" value="" style="endArrow=none;html=1;rounded=0;fontSize=10;entryX=0.5;entryY=1;entryDx=0;entryDy=0;exitX=0.5;exitY=0;exitDx=0;exitDy=0;" edge="1" parent="1" source="08mX7MxqLNH22tpMBtNo-100" target="08mX7MxqLNH22tpMBtNo-64">
          <mxGeometry width="50" height="50" relative="1" as="geometry">
            <mxPoint x="494.5" y="710" as="sourcePoint" />
            <mxPoint x="544.5" y="740" as="targetPoint" />
          </mxGeometry>
        </mxCell>
        <mxCell id="08mX7MxqLNH22tpMBtNo-102" value="Titulo" style="ellipse;whiteSpace=wrap;html=1;fontSize=12;" vertex="1" parent="1">
          <mxGeometry x="99.5" y="660" width="60" height="30" as="geometry" />
        </mxCell>
        <mxCell id="08mX7MxqLNH22tpMBtNo-103" value="" style="endArrow=none;html=1;rounded=0;fontSize=10;entryX=0.5;entryY=1;entryDx=0;entryDy=0;exitX=0.5;exitY=0;exitDx=0;exitDy=0;" edge="1" parent="1" source="08mX7MxqLNH22tpMBtNo-102">
          <mxGeometry width="50" height="50" relative="1" as="geometry">
            <mxPoint x="19.5" y="710" as="sourcePoint" />
            <mxPoint x="259.5" y="580" as="targetPoint" />
          </mxGeometry>
        </mxCell>
        <mxCell id="08mX7MxqLNH22tpMBtNo-104" value="Place_ID&lt;div&gt;(pk)&lt;/div&gt;" style="ellipse;whiteSpace=wrap;html=1;fontSize=12;fillColor=#f8cecc;strokeColor=#b85450;" vertex="1" parent="1">
          <mxGeometry x="168.5" y="640" width="80" height="35" as="geometry" />
        </mxCell>
        <mxCell id="08mX7MxqLNH22tpMBtNo-105" value="" style="endArrow=none;html=1;rounded=0;fontSize=10;exitX=0.5;exitY=0;exitDx=0;exitDy=0;" edge="1" parent="1" source="08mX7MxqLNH22tpMBtNo-104">
          <mxGeometry width="50" height="50" relative="1" as="geometry">
            <mxPoint x="59.5" y="740" as="sourcePoint" />
            <mxPoint x="259.5" y="580" as="targetPoint" />
          </mxGeometry>
        </mxCell>
        <mxCell id="08mX7MxqLNH22tpMBtNo-106" value="Moneda" style="ellipse;whiteSpace=wrap;html=1;fontSize=12;" vertex="1" parent="1">
          <mxGeometry x="239.5" y="665" width="60" height="30" as="geometry" />
        </mxCell>
        <mxCell id="08mX7MxqLNH22tpMBtNo-117" value="" style="endArrow=none;html=1;rounded=0;fontSize=10;entryX=0.5;entryY=1;entryDx=0;entryDy=0;exitX=0.5;exitY=0;exitDx=0;exitDy=0;" edge="1" parent="1" source="08mX7MxqLNH22tpMBtNo-62" target="08mX7MxqLNH22tpMBtNo-141">
          <mxGeometry width="50" height="50" relative="1" as="geometry">
            <mxPoint x="135.5" y="570" as="sourcePoint" />
            <mxPoint x="289.5" y="525" as="targetPoint" />
            <Array as="points" />
          </mxGeometry>
        </mxCell>
        <mxCell id="08mX7MxqLNH22tpMBtNo-124" value="&lt;b&gt;&lt;font style=&quot;font-size: 20px&quot;&gt;MODELO ENTIDAD RELACION&lt;/font&gt;&lt;/b&gt;" style="text;html=1;align=center;verticalAlign=middle;resizable=0;points=[];autosize=1;strokeColor=none;fillColor=none;fontSize=12;" vertex="1" parent="1">
          <mxGeometry x="249" y="390" width="310" height="20" as="geometry" />
        </mxCell>
        <mxCell id="08mX7MxqLNH22tpMBtNo-125" value="&lt;div&gt;Latitud&lt;/div&gt;" style="ellipse;whiteSpace=wrap;html=1;fontSize=12;" vertex="1" parent="1">
          <mxGeometry x="612.5" y="452.5" width="60" height="30" as="geometry" />
        </mxCell>
        <mxCell id="08mX7MxqLNH22tpMBtNo-126" value="&lt;div&gt;Longitud&lt;/div&gt;" style="ellipse;whiteSpace=wrap;html=1;fontSize=12;" vertex="1" parent="1">
          <mxGeometry x="672.5" y="470" width="60" height="30" as="geometry" />
        </mxCell>
        <mxCell id="08mX7MxqLNH22tpMBtNo-127" value="&lt;div&gt;Rubro&lt;/div&gt;" style="ellipse;whiteSpace=wrap;html=1;fontSize=12;" vertex="1" parent="1">
          <mxGeometry x="709.5" y="500" width="60" height="30" as="geometry" />
        </mxCell>
        <mxCell id="08mX7MxqLNH22tpMBtNo-128" value="&lt;div&gt;Nombre&lt;/div&gt;" style="ellipse;whiteSpace=wrap;html=1;fontSize=12;" vertex="1" parent="1">
          <mxGeometry x="698.5" y="655" width="60" height="30" as="geometry" />
        </mxCell>
        <mxCell id="08mX7MxqLNH22tpMBtNo-129" value="&lt;div&gt;DirecciÃ³n&lt;/div&gt;" style="ellipse;whiteSpace=wrap;html=1;fontSize=12;" vertex="1" parent="1">
          <mxGeometry x="557.5" y="700" width="81" height="30" as="geometry" />
        </mxCell>
        <mxCell id="08mX7MxqLNH22tpMBtNo-130" value="" style="endArrow=none;html=1;rounded=0;fontSize=10;entryX=0.5;entryY=0;entryDx=0;entryDy=0;exitX=0.5;exitY=1;exitDx=0;exitDy=0;" edge="1" parent="1" source="08mX7MxqLNH22tpMBtNo-125" target="08mX7MxqLNH22tpMBtNo-64">
          <mxGeometry width="50" height="50" relative="1" as="geometry">
            <mxPoint x="634.5" y="660" as="sourcePoint" />
            <mxPoint x="593.5" y="590" as="targetPoint" />
          </mxGeometry>
        </mxCell>
        <mxCell id="08mX7MxqLNH22tpMBtNo-131" value="" style="endArrow=none;html=1;rounded=0;fontSize=10;entryX=0.5;entryY=0;entryDx=0;entryDy=0;exitX=0.5;exitY=1;exitDx=0;exitDy=0;" edge="1" parent="1" source="08mX7MxqLNH22tpMBtNo-126" target="08mX7MxqLNH22tpMBtNo-64">
          <mxGeometry width="50" height="50" relative="1" as="geometry">
            <mxPoint x="657.5" y="498" as="sourcePoint" />
            <mxPoint x="593.5" y="560" as="targetPoint" />
          </mxGeometry>
        </mxCell>
        <mxCell id="08mX7MxqLNH22tpMBtNo-132" value="" style="endArrow=none;html=1;rounded=0;fontSize=10;entryX=0.5;entryY=0;entryDx=0;entryDy=0;exitX=0.5;exitY=1;exitDx=0;exitDy=0;" edge="1" parent="1" source="08mX7MxqLNH22tpMBtNo-127" target="08mX7MxqLNH22tpMBtNo-64">
          <mxGeometry width="50" height="50" relative="1" as="geometry">
            <mxPoint x="748.5" y="500" as="sourcePoint" />
            <mxPoint x="593.5" y="560" as="targetPoint" />
          </mxGeometry>
        </mxCell>
        <mxCell id="08mX7MxqLNH22tpMBtNo-133" value="" style="endArrow=none;html=1;rounded=0;fontSize=10;entryX=0.5;entryY=1;entryDx=0;entryDy=0;exitX=0.5;exitY=0;exitDx=0;exitDy=0;" edge="1" parent="1" source="08mX7MxqLNH22tpMBtNo-128" target="08mX7MxqLNH22tpMBtNo-64">
          <mxGeometry width="50" height="50" relative="1" as="geometry">
            <mxPoint x="558.5" y="700" as="sourcePoint" />
            <mxPoint x="593.5" y="590" as="targetPoint" />
          </mxGeometry>
        </mxCell>
        <mxCell id="08mX7MxqLNH22tpMBtNo-134" value="" style="endArrow=none;html=1;rounded=0;fontSize=10;entryX=0.5;entryY=1;entryDx=0;entryDy=0;exitX=0.5;exitY=0;exitDx=0;exitDy=0;" edge="1" parent="1" source="08mX7MxqLNH22tpMBtNo-129" target="08mX7MxqLNH22tpMBtNo-64">
          <mxGeometry width="50" height="50" relative="1" as="geometry">
            <mxPoint x="648.5" y="680" as="sourcePoint" />
            <mxPoint x="593.5" y="590" as="targetPoint" />
          </mxGeometry>
        </mxCell>
        <mxCell id="08mX7MxqLNH22tpMBtNo-136" value="" style="endArrow=none;html=1;rounded=0;fontSize=10;exitX=0.5;exitY=0;exitDx=0;exitDy=0;entryX=0.5;entryY=1;entryDx=0;entryDy=0;" edge="1" parent="1" source="08mX7MxqLNH22tpMBtNo-106" target="08mX7MxqLNH22tpMBtNo-62">
          <mxGeometry width="50" height="50" relative="1" as="geometry">
            <mxPoint x="129.5" y="645" as="sourcePoint" />
            <mxPoint x="289.5" y="620" as="targetPoint" />
          </mxGeometry>
        </mxCell>
        <mxCell id="08mX7MxqLNH22tpMBtNo-137" value="Precio" style="ellipse;whiteSpace=wrap;html=1;fontSize=12;" vertex="1" parent="1">
          <mxGeometry x="283.5" y="640" width="60" height="30" as="geometry" />
        </mxCell>
        <mxCell id="08mX7MxqLNH22tpMBtNo-138" value="Direccion" style="ellipse;whiteSpace=wrap;html=1;fontSize=12;" vertex="1" parent="1">
          <mxGeometry x="89.5" y="490" width="60" height="30" as="geometry" />
        </mxCell>
        <mxCell id="08mX7MxqLNH22tpMBtNo-139" value="Enlace" style="ellipse;whiteSpace=wrap;html=1;fontSize=12;" vertex="1" parent="1">
          <mxGeometry x="159.5" y="485" width="60" height="30" as="geometry" />
        </mxCell>
        <mxCell id="08mX7MxqLNH22tpMBtNo-140" value="&lt;div&gt;Latitud&lt;/div&gt;" style="ellipse;whiteSpace=wrap;html=1;fontSize=12;" vertex="1" parent="1">
          <mxGeometry x="179.5" y="450" width="60" height="30" as="geometry" />
        </mxCell>
        <mxCell id="08mX7MxqLNH22tpMBtNo-141" value="&lt;div&gt;Longitud&lt;/div&gt;" style="ellipse;whiteSpace=wrap;html=1;fontSize=12;" vertex="1" parent="1">
          <mxGeometry x="239.5" y="490" width="60" height="30" as="geometry" />
        </mxCell>
        <mxCell id="08mX7MxqLNH22tpMBtNo-142" value="" style="endArrow=none;html=1;rounded=0;fontSize=10;entryX=0.5;entryY=0;entryDx=0;entryDy=0;exitX=0.5;exitY=1;exitDx=0;exitDy=0;" edge="1" parent="1" source="08mX7MxqLNH22tpMBtNo-62" target="08mX7MxqLNH22tpMBtNo-137">
          <mxGeometry width="50" height="50" relative="1" as="geometry">
            <mxPoint x="269.5" y="600" as="sourcePoint" />
            <mxPoint x="299.5" y="535" as="targetPoint" />
            <Array as="points" />
          </mxGeometry>
        </mxCell>
        <mxCell id="08mX7MxqLNH22tpMBtNo-143" value="" style="endArrow=none;html=1;rounded=0;fontSize=10;entryX=0.5;entryY=1;entryDx=0;entryDy=0;exitX=0.5;exitY=0;exitDx=0;exitDy=0;" edge="1" parent="1" source="08mX7MxqLNH22tpMBtNo-62" target="08mX7MxqLNH22tpMBtNo-140">
          <mxGeometry width="50" height="50" relative="1" as="geometry">
            <mxPoint x="239.5" y="530" as="sourcePoint" />
            <mxPoint x="279.5" y="510" as="targetPoint" />
            <Array as="points" />
          </mxGeometry>
        </mxCell>
        <mxCell id="08mX7MxqLNH22tpMBtNo-144" value="" style="endArrow=none;html=1;rounded=0;fontSize=10;entryX=0.5;entryY=1;entryDx=0;entryDy=0;exitX=0.5;exitY=0;exitDx=0;exitDy=0;" edge="1" parent="1" source="08mX7MxqLNH22tpMBtNo-62" target="08mX7MxqLNH22tpMBtNo-139">
          <mxGeometry width="50" height="50" relative="1" as="geometry">
            <mxPoint x="269.5" y="560" as="sourcePoint" />
            <mxPoint x="192.5" y="520" as="targetPoint" />
            <Array as="points" />
          </mxGeometry>
        </mxCell>
        <mxCell id="08mX7MxqLNH22tpMBtNo-145" value="" style="endArrow=none;html=1;rounded=0;fontSize=10;entryX=0.5;entryY=1;entryDx=0;entryDy=0;exitX=0.5;exitY=0;exitDx=0;exitDy=0;" edge="1" parent="1" source="08mX7MxqLNH22tpMBtNo-62" target="08mX7MxqLNH22tpMBtNo-138">
          <mxGeometry width="50" height="50" relative="1" as="geometry">
            <mxPoint x="169.5" y="560" as="sourcePoint" />
            <mxPoint x="129.5" y="530" as="targetPoint" />
            <Array as="points" />
          </mxGeometry>
        </mxCell>
        <mxCell id="08mX7MxqLNH22tpMBtNo-146" style="edgeStyle=orthogonalEdgeStyle;rounded=0;orthogonalLoop=1;jettySize=auto;html=1;exitX=0.5;exitY=1;exitDx=0;exitDy=0;" edge="1" parent="1" source="08mX7MxqLNH22tpMBtNo-128" target="08mX7MxqLNH22tpMBtNo-128">
          <mxGeometry relative="1" as="geometry" />
        </mxCell>
        <mxCell id="08mX7MxqLNH22tpMBtNo-149" value="Lugar_Place_ID&lt;div&gt;(fk)&lt;/div&gt;" style="ellipse;whiteSpace=wrap;html=1;fontSize=12;fillColor=#e1d5e7;strokeColor=#9673a6;" vertex="1" parent="1">
          <mxGeometry x="454" y="430" width="103.5" height="50" as="geometry" />
        </mxCell>
        <mxCell id="08mX7MxqLNH22tpMBtNo-150" value="" style="endArrow=none;html=1;rounded=0;fontSize=10;exitX=0.5;exitY=0;exitDx=0;exitDy=0;entryX=0.5;entryY=1;entryDx=0;entryDy=0;" edge="1" parent="1" target="08mX7MxqLNH22tpMBtNo-149" source="08mX7MxqLNH22tpMBtNo-71">
          <mxGeometry width="50" height="50" relative="1" as="geometry">
            <mxPoint x="416" y="520" as="sourcePoint" />
            <mxPoint x="461" y="390.41999999999996" as="targetPoint" />
          </mxGeometry>
        </mxCell>
        <mxCell id="08mX7MxqLNH22tpMBtNo-151" value="Place_ID_Inmueble&lt;div&gt;(fk)&lt;/div&gt;" style="ellipse;whiteSpace=wrap;html=1;fontSize=12;fillColor=#e1d5e7;strokeColor=#9673a6;" vertex="1" parent="1">
          <mxGeometry x="279.5" y="430" width="114" height="50" as="geometry" />
        </mxCell>
        <mxCell id="08mX7MxqLNH22tpMBtNo-152" value="" style="endArrow=none;html=1;rounded=0;fontSize=10;entryX=0.5;entryY=1;entryDx=0;entryDy=0;exitX=0.5;exitY=0;exitDx=0;exitDy=0;" edge="1" parent="1" target="08mX7MxqLNH22tpMBtNo-151" source="08mX7MxqLNH22tpMBtNo-71">
          <mxGeometry width="50" height="50" relative="1" as="geometry">
            <mxPoint x="409.5" y="540" as="sourcePoint" />
            <mxPoint x="476" y="470.41999999999996" as="targetPoint" />
          </mxGeometry>
        </mxCell>
        <mxCell id="08mX7MxqLNH22tpMBtNo-153" value="Id(pk)" style="ellipse;whiteSpace=wrap;html=1;fontSize=12;fillColor=#f8cecc;strokeColor=#b85450;" vertex="1" parent="1">
          <mxGeometry x="384" y="470" width="60" height="30" as="geometry" />
        </mxCell>
        <mxCell id="08mX7MxqLNH22tpMBtNo-154" value="" style="endArrow=none;html=1;rounded=0;fontSize=10;exitX=0.5;exitY=0;exitDx=0;exitDy=0;entryX=0.5;entryY=1;entryDx=0;entryDy=0;" edge="1" parent="1" target="08mX7MxqLNH22tpMBtNo-153" source="08mX7MxqLNH22tpMBtNo-71">
          <mxGeometry width="50" height="50" relative="1" as="geometry">
            <mxPoint x="416" y="520" as="sourcePoint" />
            <mxPoint x="521" y="565" as="targetPoint" />
          </mxGeometry>
        </mxCell>
      </root>
    </mxGraphModel>
  </diagram>
</mxfile>
